# xmcd
#
# Track frame offsets: 
#        150
#        23780
#        42196
#        79511
#        115805
#        137191
#        160708
#
# Disc length: 2223 seconds
#
# Revision: 0
# Processed by: cddbd v1.5.2PL0 Copyright (c) Steve Scherf et al.
# Submitted via: ExactAudioCopy v0.95b3
#
DISCID=4c08ad07
DTITLE=Procol Harum  - Live in Copenhagen 2001 (Classic Pictures) - Di
DTITLE=sc 2
DYEAR=1900
DGENRE=
TTITLE0=A Christmas Camel
TTITLE1=New Lamps For Old
TTITLE2=As Strong As Samson
TTITLE3=Repent Walpurgis
TTITLE4=Conquistador
TTITLE5=A Whiter Shade Of Pale
TTITLE6=Exit applause
EXTD=
EXTT0=
EXTT1=
EXTT2=
EXTT3=
EXTT4=
EXTT5=
EXTT6=
PLAYORDER=
